<svg width="183" height="65" viewBox="0 0 183 65" fill="none" xmlns="http://www.w3.org/2000/svg">
<g clip-path="url(#clip0_466_3715)">
<path d="M68.1471 32.0592C68.1471 36.244 66.7035 40.0842 64.2838 43.1239C61.0101 47.2276 55.9573 49.8621 50.2945 49.8621C47.214 49.8621 44.3063 49.0819 41.7748 47.714C36.2136 44.6945 32.4316 38.8278 32.4316 32.0694C32.4316 27.986 33.8041 23.9735 36.1323 21.0351C36.8948 20.0725 37.759 19.2214 38.7045 18.5324C39.0806 18.2588 39.833 18.1068 40.5243 18.0156C40.8903 17.9649 41.2461 17.9244 41.5206 17.8839C41.5816 17.8737 41.6426 17.8636 41.6935 17.8535C42.4255 17.742 43.4218 17.6103 44.4893 17.4988C46.5328 17.2861 48.861 17.1037 50.2741 17.1138C51.6263 17.1138 53.9951 17.2455 55.8658 17.4279C56.5266 17.4988 57.1163 17.5698 57.5941 17.6508C58.743 17.8433 61.1423 18.1271 62.1285 18.7553C65.758 21.1161 68.137 26.7701 68.137 32.0694L68.1471 32.0592Z" fill="#2F3C66"/>
<path d="M49.1965 9.33203C48.8 9.33203 48.6881 8.83554 48.6881 8.83554L47.0208 0.911926C46.7565 -0.324239 45.872 0.0506633 45.872 0.0506633L40.8395 1.22603C40.382 1.56041 40.5548 2.19875 40.5548 2.19875L42.1713 9.51442C42.3543 10.629 42.0188 10.8012 42.0188 10.8012C36.6101 12.7568 31.903 17.6306 31.903 17.6306L34.3633 19.424C41.2461 12.3313 49.2676 12.2401 49.2676 12.2401C55.2151 11.8854 59.5055 14.0538 59.6275 14.1146L61.0813 11.6726C55.754 9.13952 49.1863 9.33203 49.1863 9.33203H49.1965Z" fill="#2F3C66"/>
<path d="M61.1017 11.6726C61.1017 11.6726 60.7153 12.9696 60.2883 13.7397C60.2883 13.7397 59.658 14.9556 59.0378 15.756L59.6478 14.1247L61.1017 11.6726Z" fill="#2F3C66"/>
<path d="M31.9131 17.6306C31.9131 17.6306 33.1636 19.2518 35.5325 20.6804L34.3633 19.424L31.903 17.6306H31.9131Z" fill="#2F3C66"/>
<path d="M59.6377 14.1247L59.0277 15.756C53.9749 13.6384 48.9119 14.1348 48.9119 14.1348C40.4227 15.0265 35.5325 20.6804 35.5325 20.6804L34.3735 19.424C41.2564 12.3313 49.2779 12.2401 49.2779 12.2401C55.2254 11.8854 59.5157 14.0538 59.6377 14.1146V14.1247Z" fill="#2F3C66"/>
<path d="M66.2358 44.4614L63.9178 46.6095C62.1996 48.3219 57.7161 50.2167 57.7161 50.2167C53.9951 51.8075 49.8471 51.7062 49.8471 51.7062C45.4246 51.7062 41.2461 49.9026 40.7175 49.6594L39.1315 52.1216C39.1315 52.1216 39.2026 52.152 39.2433 52.1723C41.3783 53.1855 46.421 54.3102 46.421 54.3102C48.495 54.6142 51.0265 54.675 51.0265 54.675C51.7483 54.756 51.789 55.3944 51.789 55.3944L52.8565 61.1091L53.3546 63.5004C53.6393 64.5238 54.3306 64.3617 54.3306 64.3617L59.4648 63.3281C60.0341 63.2572 59.9121 62.0515 59.9121 62.0515L58.3363 54.523C58.0821 53.6516 58.5091 53.3375 58.5091 53.3375C58.743 53.2362 60.9491 52.0304 60.9491 52.0304C63.1451 51.1387 65.636 49.092 65.636 49.092C66.8356 48.1193 68.6961 46.1941 68.6961 46.1941L66.2561 44.4614H66.2358Z" fill="#2F3C66"/>
<path d="M39.1213 52.1216C39.1213 52.1216 39.1925 52.152 39.2332 52.1723L39.1213 52.1216Z" fill="#2F3C66"/>
<path d="M66.2359 44.4614L63.9179 46.6095C62.1997 48.3219 57.7162 50.2167 57.7162 50.2167C53.9952 51.8075 49.8472 51.7061 49.8472 51.7061C45.4247 51.7061 41.2462 49.9026 40.7175 49.6594L41.3072 48.7373L44.3267 49.71C46.6244 50.4193 48.678 50.5206 48.678 50.5206C59.1395 51.0374 65.1582 43.894 65.1582 43.894L66.246 44.4614H66.2359Z" fill="#2F3C66"/>
<path d="M27.9787 29.3032V47.795H20.0588V29.8808C20.0588 26.608 17.7103 24.8956 14.0097 24.8956C9.7905 24.8956 7.90967 26.608 7.90967 29.8808V47.795H0V29.3032C0 22.3929 5.5205 18.1879 14.0198 18.1879C22.5192 18.1879 27.9888 22.3929 27.9888 29.3032H27.9787Z" fill="#A3A3A3"/>
<path d="M68.808 17.9649H77.5615L85.278 36.9228L92.8318 17.9649H101.433L88.8262 47.0452H81.4756L68.808 17.9649Z" fill="#A3A3A3"/>
<path d="M132.116 36.4466C132.116 43.357 126.697 47.562 118.259 47.562C109.82 47.562 104.34 43.357 104.34 36.4466V17.9649H112.26V35.8792C112.26 39.152 114.029 40.8644 118.248 40.8644C121.949 40.8644 124.186 39.152 124.186 35.8792V17.9649H132.106V36.4568L132.116 36.4466Z" fill="#A3A3A3"/>
<path d="M137.036 28.5534C137.036 21.643 142.039 17.438 150.538 17.438C154.503 17.438 157.939 18.8971 160.023 21.2276C162.107 18.887 165.544 17.438 169.56 17.438C177.998 17.438 183 21.643 183 28.5534V47.0452H175.08V29.131C175.08 25.8582 173.26 24.1458 169.56 24.1458C165.341 24.1458 163.988 25.8582 163.988 29.131V47.0452H156.068V29.131C156.068 25.8582 154.249 24.1458 150.548 24.1458C146.329 24.1458 144.967 25.8582 144.967 29.131V47.0452H137.047V28.5534H137.036Z" fill="#A3A3A3"/>
<path d="M106.689 54.2596C106.689 51.4833 108.905 49.7709 112.494 49.7709C116.083 49.7709 118.299 51.4833 118.299 54.2596V56.7623H109.881V57.4108C109.861 58.728 110.806 59.2245 112.504 59.2245C114.344 59.2245 115.097 58.576 115.097 57.8465V57.654H118.238V57.9883C118.238 59.9743 116.144 61.8691 112.504 61.8691C108.865 61.8691 106.699 60.177 106.699 57.4006V54.2494L106.689 54.2596ZM115.107 54.7155V54.3001C115.107 53.0639 114.222 52.4256 112.494 52.4256C110.766 52.4256 109.851 53.0133 109.83 54.3001V54.7155H115.107Z" fill="#2F3C66"/>
<path d="M132.136 54.2393V61.6664H128.954V54.4622C128.954 53.145 128.009 52.456 126.524 52.456C124.826 52.456 124.074 53.145 124.074 54.4622V61.6664H120.892V54.2393C120.892 51.463 123.108 49.7708 126.524 49.7708C129.94 49.7708 132.136 51.463 132.136 54.2393Z" fill="#2F3C66"/>
<path d="M134.81 54.2595C134.81 51.4832 137.026 49.7708 140.615 49.7708C144.204 49.7708 146.42 51.4832 146.42 54.2595V56.7623H138.002V57.4108C137.982 58.728 138.927 59.2245 140.625 59.2245C142.465 59.2245 143.218 58.576 143.218 57.8464V57.6539H146.359V57.9883C146.359 59.9743 144.265 61.8691 140.625 61.8691C136.986 61.8691 134.82 60.1769 134.82 57.4006V54.2494L134.81 54.2595ZM143.228 54.7155V54.3001C143.228 53.0639 142.343 52.4256 140.615 52.4256C138.887 52.4256 137.972 53.0132 137.951 54.3001V54.7155H143.228Z" fill="#2F3C66"/>
<path d="M155.946 52.5269C155.591 52.4864 154.94 52.4661 154.503 52.4661C152.805 52.4661 152.195 52.841 152.195 54.0569V61.6765H149.013V53.8036C149.013 51.0273 150.558 49.781 153.974 49.781C154.686 49.781 155.357 49.8012 155.946 49.862V52.537V52.5269Z" fill="#2F3C66"/>
<path d="M168.929 54.2393V60.9571C168.929 63.5916 166.693 65.0101 163.236 65.0101C159.546 65.0101 157.583 63.7537 157.583 61.5245V61.332H160.705C160.705 61.8792 161.477 62.3149 163.236 62.3149C164.812 62.3149 165.747 61.8792 165.747 60.7241V59.7615C164.822 60.258 163.572 60.5518 162.209 60.5518C158.834 60.5518 157.451 59.113 157.451 56.3164V54.2291C157.451 51.4528 159.627 49.7607 163.216 49.7607C166.805 49.7607 168.929 51.4528 168.929 54.2291V54.2393ZM165.747 54.4723C165.747 53.1551 164.893 52.4661 163.216 52.4661C161.538 52.4661 160.644 53.1551 160.644 54.4723V56.1442C160.644 57.2892 161.254 57.7755 162.88 57.7755C163.948 57.7755 164.914 57.6134 165.747 57.1676V54.4723Z" fill="#2F3C66"/>
<path d="M171.837 61.332H174.958C174.958 61.8792 175.731 62.3149 177.469 62.3149C179.045 62.3149 179.94 61.8994 179.94 60.7443V59.4271C178.974 60.1567 177.51 60.5924 176.087 60.5924C173.108 60.5924 171.705 59.6906 171.705 57.2486V49.9634H174.887V56.438C174.887 57.4209 175.436 57.7958 177.042 57.7958C178.11 57.7958 179.157 57.5222 179.808 57.046V49.9735H182.99V60.9065C182.99 63.5409 180.936 65 177.459 65C173.708 65 171.827 63.7436 171.827 61.5144V61.3219L171.837 61.332Z" fill="#2F3C66"/>
</g>
<defs>
<clipPath id="clip0_466_3715">
<rect width="183" height="65" fill="white"/>
</clipPath>
</defs>
</svg>
